<?xml version="1.0" encoding="UTF-8"?>
<svg id="Layer_1" data-name="Layer 1" xmlns="http://www.w3.org/2000/svg" viewBox="0 0 806.7 103.07">
  <defs>
    <style>
      .cls-1 {
        fill: #e6ddcc;
        stroke-width: 0px;
      }
    </style>
  </defs>
  <g>
    <path class="cls-1" d="m114.9,87.67v-2.9c5.3,4.4,10.5,5.9,18.3,5.9,10,0,15.6-4.7,15.6-12.8,0-6.5-3.9-10.6-14.4-14.6-13.3-5-18.6-10.2-18.6-18.7,0-9.4,8-15.8,20.3-15.8,5.8,0,11.8,1.4,15.5,3.8v2.8c-5-3-9.4-4.1-15.5-4.1-8.6,0-13.9,3.9-13.9,10.4s3.7,9.7,15.4,14.2c13,5,17.6,10.1,17.6,19.1,0,10.8-9.1,18.3-22.1,18.3-8,0-14.1-2.2-18.2-5.6Z"/>
    <path class="cls-1" d="m208,32.27l-20.6-1.1v61.4h-8V31.17l-20.6,1.1v-2.9h49.1v2.9h.1Z"/>
    <path class="cls-1" d="m208.9,60.97c0-18.8,13.9-32.3,33.6-32.3s33.1,13.3,33.1,32.3-13.6,32.3-33.1,32.3-33.6-13.2-33.6-32.3Zm64.1-.1c0-16.2-11-28.7-27.4-28.7s-27.2,12.5-27.2,28.7,10.9,28.9,27.2,28.9,27.4-12.2,27.4-28.9Z"/>
    <path class="cls-1" d="m297.4,62.87h-.7v29.8h-8V29.37h15.1c11.8,0,18.9,6.1,18.9,16.8,0,9.7-6.4,15.9-17.1,16.6l20,29.9h-8.6l-19.6-29.8Zm-.7-31.2v28.9h8c9.8,0,15.5-5.7,15.5-14.4s-5.8-14.5-16.1-14.5c0,0-7.4,0-7.4,0Z"/>
    <path class="cls-1" d="m377.2,32.27l-20.6-1.1v61.4h-8V31.17l-20.6,1.1v-2.9h49.1v2.9h.1Z"/>
    <path class="cls-1" d="m386.9,92.67V29.37h8v63.3h-8Z"/>
    <path class="cls-1" d="m461.9,29.37l-.6,58.7v5.1l-46.2-50.9.2,50.4h-3.2l.7-56.9v-6.9l46.2,50.9-.3-50.5h3.2v.1Z"/>
    <path class="cls-1" d="m533.3,60.47v29.4c-1.1-.8-2.5-1.2-4.4-1.2-2.1,0-3.7.5-6.3,1.6-4.4,1.7-9.1,3-14.6,3-19.1,0-33.3-13.7-33.3-32.3s14.2-32.3,33.4-32.3c10.5,0,16.2,1.8,22.5,6.5v2.9c-5.5-4.8-11.7-6.9-19.7-6.9-15.7,0-26.8,12.3-26.8,29.6s11,29.6,27.1,29.6c3.7,0,7.5-.9,11.4-2.7,2.4-1.3,3-3.7,3-6.5v-20.7h7.7Z"/>
    <path class="cls-1" d="m543.2,87.67v-2.9c5.3,4.4,10.5,5.9,18.3,5.9,10,0,15.6-4.7,15.6-12.8,0-6.5-3.9-10.6-14.4-14.6-13.3-5-18.6-10.2-18.6-18.7,0-9.4,8-15.8,20.3-15.8,5.8,0,11.8,1.4,15.5,3.8v2.8c-5-3-9.4-4.1-15.5-4.1-8.6,0-13.9,3.9-13.9,10.4s3.7,9.7,15.4,14.2c13,5,17.6,10.1,17.6,19.1,0,10.8-9.1,18.3-22.1,18.3-8,0-14.1-2.2-18.2-5.6Z"/>
    <path class="cls-1" d="m650.3,60.47v29.4c-1.1-.8-2.5-1.2-4.4-1.2-2.1,0-3.7.5-6.3,1.6-4.4,1.7-9.1,3-14.6,3-19.1,0-33.3-13.7-33.3-32.3s14.2-32.3,33.4-32.3c10.5,0,16.2,1.8,22.5,6.5v2.9c-5.5-4.8-11.7-6.9-19.7-6.9-15.7,0-26.8,12.3-26.8,29.6s11,29.6,27.1,29.6c3.7,0,7.5-.9,11.4-2.7,2.4-1.3,3-3.7,3-6.5v-20.7h7.7Z"/>
    <path class="cls-1" d="m692.8,66.17h-22.5l-10.7,26.5h-3.7l28.1-65,28.7,65h-8.4l-11.5-26.5Zm-1-2.3l-10.7-24.6-9.9,24.6h20.6Z"/>
    <path class="cls-1" d="m755.9,32.27l-20.6-1.1v61.4h-8V31.17l-20.5,1.1v-2.9h49.1v2.9Z"/>
    <path class="cls-1" d="m786.8,66.17h-22.5l-10.7,26.5h-3.7l28.1-65,28.7,65h-8.4l-11.5-26.5Zm-1-2.3l-10.7-24.6-9.9,24.6h20.6Z"/>
  </g>
  <g>
    <path class="cls-1" d="m18.3,53.27c-2,0-3.7,1.7-3.7,3.7s1.7,3.7,3.7,3.7,3.7-1.7,3.7-3.7c0-2.1-1.6-3.7-3.7-3.7Zm1.6,3.7c0,.9-.7,1.6-1.6,1.6s-1.6-.7-1.6-1.6.7-1.6,1.6-1.6,1.6.7,1.6,1.6Z"/>
    <path class="cls-1" d="m70.4,53.27c-2,0-3.7,1.7-3.7,3.7s1.7,3.7,3.7,3.7,3.7-1.7,3.7-3.7c0-2.1-1.7-3.7-3.7-3.7Zm1.6,3.7c0,.9-.7,1.6-1.6,1.6s-1.6-.7-1.6-1.6.7-1.6,1.6-1.6,1.6.7,1.6,1.6Z"/>
    <path class="cls-1" d="m78.5,100.87v-54l-4.6-6.3c-.2-.3-.5-.5-.9-.5h-8.6v-9.4l.4.2,1-1.8-8-4.3c.1-2.2-.2-7.3-3.4-10.9-2-2.2-4.8-3.5-8.4-3.7v-4.5c.4.1.8.3,1.1.5.7.4,1.4.8,2.5.8,2.4,0,3.5-2.2,3.5-2.3l.7-1.3-1.5-.2c-.5-.1-1.5-.2-2.2-1.6C49.1-.43,45.8-.03,44.8.17l-.9.1v9.7c-3.7.2-6.7,1.4-8.9,3.8-3.6,3.8-3.9,9.4-3.8,11.2l-8.2,4.4-.2.1,1,1.8.3-.2v8.8h-9.1c-.4,0-.7.2-.9.5l-4.2,6.3.1.3v54H0v2.1h37.7v-17.9c0-2.7,3.3-4.9,7.3-4.9s7.3,2.2,7.3,4.9v17.9h36.1v-2.1h-9.9v-.1ZM46,3.47v-1.3c1.3-.1,2.1.1,2.2.3.5,1,1.2,1.7,2,2.2-.2.1-.4.1-.6.1-.5,0-.9-.2-1.5-.5-.5-.2-1.2-.6-2.1-.8Zm30.4,67.1v30.3h-12v-30.3h12Zm-11.9-2.1v-19.7h12v19.7h-12Zm0-21.8v-4.4h8l3.3,4.4h-11.3Zm-19.2-28.6c-.3-.2-.7-.2-1,0l-11,5.9c.1-2.2.8-6,3.2-8.6,1.9-2.1,4.7-3.1,8.2-3.1s6.2,1,8,3.1c2.3,2.6,2.8,6.2,2.9,8.4l-10.3-5.7Zm17.1,30.7v19.7h-5.8v-19.7h5.8Zm-17.5,29.4c-5.2,0-9.4,3.1-9.4,7v15.8h-9.3v-30.4h36.1v30.3h-8.1v-15.8c.1-3.8-4.1-6.9-9.3-6.9Zm-.2-44.4c-6.6,0-11.9,3.9-11.9,8.8v4.1h-6.6v-16.5l18.5-10,17.6,9.5v17.1h-5.8v-4.1c.1-4.9-5.2-8.9-11.8-8.9Zm-9.8,8.8c0-3.7,4.4-6.7,9.8-6.7s9.8,3,9.8,6.7v25.9h-19.6v-25.9Zm-2,6.2v19.7h-6.6v-19.7h6.6Zm-8.7-6.6v4.5h-11.5l3-4.5h8.5Zm-12.1,26.4v-19.8h12.1v19.8s-12.1,0-12.1,0Zm0,32.3v-30.2h12.1v30.2s-12.1,0-12.1,0Z"/>
  </g>
</svg>